<svg width="18" height="18" viewBox="0 0 18 18" fill="none" xmlns="http://www.w3.org/2000/svg">
<path d="M9 16.5C7.95 16.5 6.96875 16.3031 6.05625 15.9094C5.14375 15.5156 4.35 14.9812 3.675 14.3062C3 13.6312 2.46875 12.8344 2.08125 11.9156C1.69375 10.9969 1.5 10.0125 1.5 8.9625C1.5 7.9125 1.69375 6.93437 2.08125 6.02812C2.46875 5.12187 3 4.33125 3.675 3.65625C4.35 2.98125 5.14375 2.45312 6.05625 2.07187C6.96875 1.69062 7.95 1.5 9 1.5C10.05 1.5 11.0312 1.69062 11.9437 2.07187C12.8562 2.45312 13.65 2.98125 14.325 3.65625C15 4.33125 15.5312 5.12187 15.9187 6.02812C16.3062 6.93437 16.5 7.9125 16.5 8.9625C16.5 10.0125 16.3062 10.9969 15.9187 11.9156C15.5312 12.8344 15 13.6312 14.325 14.3062C13.65 14.9812 12.8562 15.5156 11.9437 15.9094C11.0312 16.3031 10.05 16.5 9 16.5ZM9 15.4125C9.4375 14.9625 9.80312 14.4469 10.0969 13.8656C10.3906 13.2844 10.6312 12.5937 10.8187 11.7937H7.2C7.375 12.5437 7.60937 13.2187 7.90312 13.8187C8.19687 14.4187 8.5625 14.95 9 15.4125ZM7.40625 15.1875C7.09375 14.7125 6.825 14.2 6.6 13.65C6.375 13.1 6.1875 12.4812 6.0375 11.7937H3.225C3.7 12.6812 4.25 13.3781 4.875 13.8844C5.5 14.3906 6.34375 14.825 7.40625 15.1875ZM10.6125 15.1687C11.5125 14.8812 12.3219 14.45 13.0406 13.875C13.7594 13.3 14.3375 12.6062 14.775 11.7937H11.9812C11.8187 12.4687 11.6281 13.0812 11.4094 13.6312C11.1906 14.1812 10.925 14.6937 10.6125 15.1687ZM2.85 10.6687H5.83125C5.79375 10.3312 5.77187 10.0281 5.76562 9.75937C5.75937 9.49062 5.75625 9.225 5.75625 8.9625C5.75625 8.65 5.7625 8.37187 5.775 8.12812C5.7875 7.88437 5.8125 7.6125 5.85 7.3125H2.85C2.7625 7.6125 2.70312 7.88125 2.67187 8.11875C2.64062 8.35625 2.625 8.6375 2.625 8.9625C2.625 9.2875 2.64062 9.57812 2.67187 9.83437C2.70312 10.0906 2.7625 10.3687 2.85 10.6687ZM6.99375 10.6687H11.025C11.075 10.2812 11.1062 9.96562 11.1187 9.72187C11.1312 9.47812 11.1375 9.225 11.1375 8.9625C11.1375 8.7125 11.1312 8.47187 11.1187 8.24062C11.1062 8.00937 11.075 7.7 11.025 7.3125H6.99375C6.94375 7.7 6.9125 8.00937 6.9 8.24062C6.8875 8.47187 6.88125 8.7125 6.88125 8.9625C6.88125 9.225 6.8875 9.47812 6.9 9.72187C6.9125 9.96562 6.94375 10.2812 6.99375 10.6687ZM12.15 10.6687H15.15C15.2375 10.3687 15.2969 10.0906 15.3281 9.83437C15.3594 9.57812 15.375 9.2875 15.375 8.9625C15.375 8.6375 15.3594 8.35625 15.3281 8.11875C15.2969 7.88125 15.2375 7.6125 15.15 7.3125H12.1687C12.2062 7.75 12.2312 8.08437 12.2437 8.31562C12.2562 8.54687 12.2625 8.7625 12.2625 8.9625C12.2625 9.2375 12.2531 9.49687 12.2344 9.74062C12.2156 9.98437 12.1875 10.2937 12.15 10.6687ZM11.9625 6.1875H14.775C14.3625 5.325 13.7969 4.60625 13.0781 4.03125C12.3594 3.45625 11.5312 3.05 10.5937 2.8125C10.9062 3.275 11.1719 3.775 11.3906 4.3125C11.6094 4.85 11.8 5.475 11.9625 6.1875ZM7.2 6.1875H10.8375C10.7 5.525 10.4687 4.88437 10.1437 4.26562C9.81875 3.64687 9.4375 3.1 9 2.625C8.6 2.9625 8.2625 3.40625 7.9875 3.95625C7.7125 4.50625 7.45 5.25 7.2 6.1875ZM3.225 6.1875H6.05625C6.19375 5.5125 6.36875 4.90937 6.58125 4.37812C6.79375 3.84687 7.0625 3.33125 7.3875 2.83125C6.45 3.06875 5.63125 3.46875 4.93125 4.03125C4.23125 4.59375 3.6625 5.3125 3.225 6.1875Z" fill="black"/>
</svg>
