<svg width="24" height="24" viewBox="0 0 24 24" fill="none" xmlns="http://www.w3.org/2000/svg">
<g id="194909_social media_twitter_icon 1" clip-path="url(#clip0_451_54)">
<g id="Page-1">
<g id="Twitter">
<path id="Oval-1" fill-rule="evenodd" clip-rule="evenodd" d="M12 24C18.6274 24 24 18.6274 24 12C24 5.37258 18.6274 0 12 0C5.37258 0 0 5.37258 0 12C0 18.6274 5.37258 24 12 24ZM12 22.56C17.8321 22.56 22.56 17.8321 22.56 12C22.56 6.16787 17.8321 1.44 12 1.44C6.16787 1.44 1.44 6.16787 1.44 12C1.44 17.8321 6.16787 22.56 12 22.56ZM11.8475 9.86606L11.8704 10.2605L11.4889 10.2122C10.1002 10.0271 8.88697 9.39914 7.8569 8.34455L7.3533 7.82128L7.22359 8.2077C6.94891 9.06908 7.1244 9.97877 7.69666 10.5906C8.00187 10.9287 7.9332 10.977 7.40672 10.7757C7.22359 10.7113 7.06336 10.663 7.0481 10.6872C6.99469 10.7435 7.17781 11.4761 7.32278 11.7659C7.52117 12.1685 7.92557 12.5629 8.36812 12.7964L8.742 12.9815L8.29945 12.9896C7.87216 12.9896 7.8569 12.9976 7.90268 13.1667C8.05528 13.69 8.65807 14.2454 9.32952 14.4869L9.80259 14.656L9.39056 14.9136C8.78015 15.2839 8.06291 15.4932 7.34567 15.5093C7.00232 15.5174 6.72 15.5496 6.72 15.5737C6.72 15.6542 7.65088 16.1051 8.19263 16.2822C9.81785 16.8054 11.7483 16.58 13.198 15.6864C14.2281 15.0505 15.2582 13.7866 15.7389 12.5629C15.9983 11.9108 16.2577 10.7194 16.2577 10.1478C16.2577 9.77751 16.2806 9.72921 16.7079 9.28644C16.9597 9.02883 17.1962 8.74707 17.242 8.66656C17.3183 8.51361 17.3107 8.51361 16.9216 8.65046C16.273 8.89197 16.1814 8.85977 16.5019 8.49751C16.7384 8.2399 17.0207 7.77298 17.0207 7.63612C17.0207 7.61197 16.9063 7.65222 16.7766 7.72468C16.6392 7.80518 16.334 7.92594 16.1051 7.99839L15.6931 8.13524L15.3192 7.86958C15.1132 7.72468 14.8233 7.56367 14.6706 7.51537C14.2815 7.40266 13.6864 7.41877 13.3354 7.54757C12.3816 7.90983 11.7788 8.84367 11.8475 9.86606Z" fill="#181823"/>
</g>
</g>
</g>
<defs>
<clipPath id="clip0_451_54">
<rect width="24" height="24" fill="white"/>
</clipPath>
</defs>
</svg>
