<svg width="154" height="49" viewBox="0 0 154 49" fill="none" xmlns="http://www.w3.org/2000/svg">
<g clip-path="url(#clip0_451_5)">
<path d="M50.471 0H4.25019C1.90287 0 0 1.88714 0 4.21505V44.7849C0 47.1129 1.90287 49 4.25019 49H50.471C52.8183 49 54.7212 47.1129 54.7212 44.7849V4.21505C54.7212 1.88714 52.8183 0 50.471 0Z" fill="#537FE7"/>
<path d="M21.2578 15.4356C19.7798 15.4687 18.5163 16.4286 17.4674 18.3105C16.366 20.4288 15.8225 22.7836 15.832 25.3748C15.8511 25.6868 15.8844 25.7152 15.9369 25.4646C16.3803 23.559 16.8428 22.0696 17.3243 20.9915C17.7963 19.9087 18.3208 19.0198 18.8929 18.3341C20.2089 16.8163 21.3484 16.5704 22.3163 17.5965C23.3747 18.807 23.9373 20.8497 24.0041 23.7151C23.9469 27.5688 23.4367 30.4815 22.4736 32.4627C21.2673 34.8742 20.0277 35.678 18.769 34.8647C17.0526 33.5077 16.099 30.5004 15.9083 25.8523C15.8415 25.6916 15.7795 25.8098 15.7319 26.207C15.6413 26.6893 15.5793 27.2188 15.5412 27.7815C15.3981 30.3065 15.7366 32.4485 16.5519 34.2075C17.3863 35.8766 18.4972 36.723 19.8847 36.7514C21.3818 36.7277 22.7454 35.7584 23.9802 33.8339C25.2103 31.8243 26.0018 29.375 26.3499 26.4765C26.4786 23.3936 26.059 20.7693 25.0959 18.6037C24.1233 16.5421 22.8503 15.4829 21.2816 15.4262" fill="#E9F8F9"/>
<path d="M32.2238 14.2913C31.4562 13.043 29.9877 12.4331 27.8183 12.4709C25.4201 12.5844 23.0886 13.2936 20.8287 14.5987C20.5664 14.7689 20.5569 14.8162 20.8001 14.7358C22.6881 14.1637 24.2186 13.8138 25.3963 13.6908C26.5787 13.5537 27.6133 13.5584 28.5001 13.7097C30.4836 14.0833 31.2703 14.9391 30.8554 16.282C30.3262 17.7951 28.8243 19.2987 26.3546 20.7929C22.9599 22.6701 20.1612 23.6914 17.9537 23.8522C15.2408 24.0224 13.9248 23.3605 14.0059 21.871C14.3444 19.7148 16.4899 17.3932 20.452 14.9013C20.5569 14.7642 20.4234 14.7736 20.0563 14.9297C19.589 15.0952 19.098 15.3032 18.583 15.5538C16.3088 16.6934 14.6019 18.0552 13.4767 19.6345C12.4373 21.1854 12.2513 22.5661 12.9188 23.7671C13.6865 25.039 15.2169 25.7247 17.515 25.824C19.8846 25.876 22.4211 25.3322 25.1245 24.1785C27.8803 22.7458 29.9639 21.0766 31.3704 19.1663C32.6863 17.2986 32.9724 15.6768 32.2381 14.3008" fill="#E9F8F9"/>
<path d="M38.7081 23.1382C39.4137 21.8521 39.2135 20.287 38.093 18.4429C36.7914 16.438 35.0082 14.7925 32.7387 13.5064C32.4574 13.3646 32.4145 13.3787 32.6052 13.549C34.0499 14.8824 35.1179 16.0267 35.8188 16.9724C36.5292 17.9228 37.0441 18.8117 37.354 19.6486C38.0215 21.54 37.6639 22.6417 36.286 22.9538C34.6983 23.2564 32.6386 22.7174 30.0974 21.3461C26.7646 19.3697 24.4713 17.4736 23.2221 15.6626C21.7203 13.4166 21.6392 11.9555 22.979 11.2793C25.0244 10.485 28.1235 11.1706 32.281 13.3315C32.4527 13.3504 32.3812 13.2416 32.0569 13.0052C31.6803 12.6837 31.2512 12.3669 30.7744 12.0501C28.6432 10.6646 26.6025 9.88444 24.6573 9.70476C22.7835 9.58655 21.4866 10.1161 20.7667 11.2935C20.0372 12.5891 20.2041 14.2488 21.2673 16.2678C22.4068 18.3294 24.1519 20.235 26.5072 21.9798C29.1343 23.63 31.6374 24.5851 34.007 24.8357C36.2956 25.0296 37.8594 24.4669 38.689 23.1477" fill="#E9F8F9"/>
<path d="M34.2263 33.1294C35.7043 33.0963 36.9678 32.1364 38.0167 30.2545C39.1181 28.1362 39.6616 25.7814 39.6521 23.1902C39.633 22.8782 39.5997 22.8498 39.5472 23.1004C39.1038 25.0059 38.6413 26.4954 38.1598 27.5735C37.6878 28.6563 37.1633 29.5452 36.5911 30.2309C35.2752 31.7487 34.1357 31.9946 33.1678 30.9685C32.1094 29.758 31.5468 27.7153 31.48 24.8499C31.5372 20.9962 32.0474 18.0835 33.0105 16.1023C34.2168 13.6908 35.4564 12.887 36.7151 13.7003C38.4315 15.0573 39.3851 18.0646 39.5758 22.7127C39.6426 22.8734 39.7046 22.7552 39.7522 22.358C39.8428 21.8757 39.9048 21.3461 39.9429 20.7835C40.086 18.2585 39.7475 16.1165 38.9322 14.3575C38.0978 12.6884 36.9869 11.842 35.5994 11.8136C34.1023 11.8373 32.7387 12.8066 31.5039 14.7311C30.2738 16.7407 29.4823 19.19 29.1342 22.0885C29.0055 25.1714 29.4251 27.7957 30.3882 29.9613C31.3608 32.0229 32.6338 33.0821 34.2025 33.1388" fill="#E9F8F9"/>
<path d="M16.776 25.4268C16.0704 26.7129 16.2706 28.278 17.3911 30.1221C18.6927 32.127 20.4759 33.7724 22.7454 35.0586C23.0267 35.2004 23.0696 35.1862 22.8789 35.016C21.4342 33.6826 20.3662 32.5383 19.6653 31.5926C18.9549 30.6422 18.44 29.7533 18.1301 28.9164C17.4626 27.025 17.8202 25.9233 19.1981 25.6112C20.7858 25.3086 22.8455 25.8476 25.3867 27.2189C28.7195 29.1953 31.0128 31.0914 32.262 32.9024C33.7638 35.1484 33.8449 36.6095 32.5051 37.2857C30.4597 38.08 27.3606 37.3944 23.2031 35.2335C23.0314 35.2146 23.103 35.3234 23.4272 35.5598C23.8038 35.8813 24.2329 36.1981 24.7097 36.5149C26.8409 37.9004 28.8816 38.6806 30.8269 38.8602C32.7006 38.9784 33.9975 38.4489 34.7174 37.2715C35.4469 35.9759 35.28 34.3162 34.2168 32.2972C33.0773 30.2356 31.3322 28.33 28.9769 26.5852C26.3498 24.935 23.8467 23.9799 21.4771 23.7293C19.1886 23.5354 17.6247 24.0981 16.7951 25.4173" fill="#E9F8F9"/>
<path d="M23.2603 34.2737C24.0279 35.522 25.4964 36.1319 27.6658 36.0941C30.064 35.9806 32.3955 35.2714 34.6554 33.9663C34.9177 33.7961 34.9272 33.7488 34.684 33.8292C32.796 34.4013 31.2655 34.7512 30.0878 34.8742C28.9054 35.0113 27.8708 35.0066 26.984 34.8553C25.0006 34.4817 24.2139 33.6259 24.6287 32.283C25.1579 30.7699 26.6598 29.2663 29.1295 27.7721C32.5242 25.8949 35.3229 24.8735 37.5304 24.7128C40.2433 24.5426 41.5593 25.2045 41.4782 26.694C41.1492 28.8454 39.0037 31.1671 35.0369 33.659C34.932 33.7961 35.0655 33.7866 35.4326 33.6306C35.8998 33.4651 36.3909 33.257 36.9059 33.0064C39.1801 31.8669 40.887 30.5051 42.0122 28.9258C43.0516 27.3749 43.2375 25.9942 42.57 24.7932C41.8024 23.5212 40.2719 22.8356 37.9786 22.7363C35.609 22.6843 33.0725 23.2281 30.3691 24.3818C27.6133 25.8145 25.5298 27.4836 24.1233 29.3939C22.8073 31.2617 22.5213 32.8835 23.2555 34.2595" fill="#E9F8F9"/>
<path d="M67.7278 33.8757H65.4239C65.3724 33.6204 65.3467 33.3566 65.3467 33.0843C65.3467 32.812 65.3724 32.5482 65.4239 32.293H71.9236C71.9751 32.5482 72.0008 32.812 72.0008 33.0843C72.0008 33.3566 71.9751 33.6204 71.9236 33.8757H69.6198V41.4705L69.1564 41.5088C69.002 41.5258 68.8518 41.5343 68.7059 41.5343C68.5601 41.5343 68.4035 41.5301 68.2362 41.5215C68.0688 41.513 67.8994 41.496 67.7278 41.4705V33.8757ZM76.9947 41.6237C76.2996 41.6237 75.699 41.5045 75.1928 41.2663C74.6865 41.028 74.2704 40.6982 73.9443 40.277C73.6182 39.8558 73.3758 39.358 73.2171 38.7836C73.0584 38.2092 72.979 37.5816 72.979 36.9009C72.979 36.2201 73.0584 35.5883 73.2171 35.0054C73.3758 34.4225 73.6182 33.9183 73.9443 33.4928C74.2704 33.0673 74.6865 32.7355 75.1928 32.4972C75.699 32.2589 76.2996 32.1398 76.9947 32.1398C77.6897 32.1398 78.2903 32.2589 78.7966 32.4972C79.3028 32.7355 79.719 33.0673 80.045 33.4928C80.3711 33.9183 80.6135 34.4225 80.7722 35.0054C80.9309 35.5883 81.0103 36.2201 81.0103 36.9009C81.0103 37.5816 80.9309 38.2092 80.7722 38.7836C80.6135 39.358 80.3711 39.8558 80.045 40.277C79.719 40.6982 79.3028 41.028 78.7966 41.2663C78.2903 41.5045 77.6897 41.6237 76.9947 41.6237ZM76.9947 40.0664C78.3246 40.0664 78.9896 39.0112 78.9896 36.9009C78.9896 35.8457 78.8287 35.0543 78.507 34.5267C78.1852 33.9991 77.6854 33.7353 77.0075 33.7353C75.6604 33.7353 74.9868 34.7905 74.9868 36.9009C74.9868 39.0112 75.6561 40.0664 76.9947 40.0664ZM87.2011 33.8757H84.8973C84.8458 33.6204 84.82 33.3566 84.82 33.0843C84.82 32.812 84.8458 32.5482 84.8973 32.293H91.397C91.4484 32.5482 91.4742 32.812 91.4742 33.0843C91.4742 33.3566 91.4484 33.6204 91.397 33.8757H89.0931V41.4705L88.6298 41.5088C88.4753 41.5258 88.3252 41.5343 88.1793 41.5343C88.0334 41.5343 87.8768 41.5301 87.7095 41.5215C87.5422 41.513 87.3727 41.496 87.2011 41.4705V33.8757ZM92.6969 32.293C93.0144 32.2419 93.3276 32.2164 93.6365 32.2164C93.9454 32.2164 94.2628 32.2419 94.5889 32.293V35.8925H97.6907V32.293C98.0082 32.2419 98.3214 32.2164 98.6303 32.2164C98.9392 32.2164 99.2567 32.2419 99.5827 32.293V41.4705C99.2567 41.5215 98.9392 41.5471 98.6303 41.5471C98.3214 41.5471 98.0082 41.5215 97.6907 41.4705V37.5008H94.5889V41.4705C94.2628 41.5215 93.9454 41.5471 93.6365 41.5471C93.3276 41.5471 93.0144 41.5215 92.6969 41.4705V32.293ZM101.385 32.293H106.636C106.687 32.5482 106.713 32.812 106.713 33.0843C106.713 33.3566 106.687 33.6204 106.636 33.8757H103.264V35.867H105.941C105.992 36.1393 106.018 36.4073 106.018 36.6711C106.018 36.9349 105.992 37.1987 105.941 37.4625H103.264V39.8877H106.726C106.777 40.143 106.803 40.4068 106.803 40.6791C106.803 40.9514 106.777 41.2152 106.726 41.4705H101.385V32.293ZM111.051 32.2547C111.445 32.2206 111.844 32.193 112.247 32.1717C112.651 32.1504 113.063 32.1398 113.483 32.1398C113.904 32.1398 114.335 32.1823 114.777 32.2674C115.218 32.3525 115.617 32.5121 115.974 32.7461C116.33 32.9801 116.619 33.3056 116.842 33.7226C117.065 34.1395 117.177 34.6799 117.177 35.3436C117.177 36.0074 117.065 36.5456 116.842 36.9583C116.619 37.371 116.332 37.6965 115.98 37.9348C115.628 38.173 115.236 38.3347 114.802 38.4198C114.369 38.5049 113.942 38.5475 113.522 38.5475L113.213 38.5347C113.11 38.5347 113.015 38.5304 112.93 38.5219V41.4705C112.767 41.496 112.608 41.513 112.453 41.5215C112.299 41.5301 112.151 41.5343 112.009 41.5343C111.868 41.5343 111.716 41.5301 111.552 41.5215C111.389 41.513 111.222 41.496 111.051 41.4705V32.2547ZM112.93 36.9775C113.033 36.9945 113.131 37.003 113.226 37.003H113.547C113.762 37.003 113.972 36.9753 114.178 36.92C114.384 36.8647 114.566 36.7732 114.725 36.6456C114.884 36.5179 115.01 36.3499 115.105 36.1414C115.199 35.9329 115.246 35.6734 115.246 35.3628C115.246 35.0522 115.199 34.7884 115.105 34.5714C115.01 34.3544 114.884 34.1799 114.725 34.048C114.566 33.9161 114.384 33.8225 114.178 33.7672C113.972 33.7119 113.762 33.6843 113.547 33.6843H113.29C113.204 33.6928 113.084 33.7055 112.93 33.7226V36.9775ZM118.554 32.293H123.805C123.857 32.5482 123.883 32.812 123.883 33.0843C123.883 33.3566 123.857 33.6204 123.805 33.8757H120.433V35.867H123.11C123.162 36.1393 123.188 36.4073 123.188 36.6711C123.188 36.9349 123.162 37.1987 123.11 37.4625H120.433V39.8877H123.895C123.947 40.143 123.973 40.4068 123.973 40.6791C123.973 40.9514 123.947 41.2152 123.895 41.4705H118.554V32.293ZM129.16 41.6237C128.465 41.6237 127.864 41.5045 127.358 41.2663C126.851 41.028 126.435 40.6982 126.109 40.277C125.783 39.8558 125.541 39.358 125.382 38.7836C125.223 38.2092 125.144 37.5816 125.144 36.9009C125.144 36.2201 125.223 35.5883 125.382 35.0054C125.541 34.4225 125.783 33.9183 126.109 33.4928C126.435 33.0673 126.851 32.7355 127.358 32.4972C127.864 32.2589 128.465 32.1398 129.16 32.1398C129.855 32.1398 130.455 32.2589 130.961 32.4972C131.468 32.7355 131.884 33.0673 132.21 33.4928C132.536 33.9183 132.778 34.4225 132.937 35.0054C133.096 35.5883 133.175 36.2201 133.175 36.9009C133.175 37.5816 133.096 38.2092 132.937 38.7836C132.778 39.358 132.536 39.8558 132.21 40.277C131.884 40.6982 131.468 41.028 130.961 41.2663C130.455 41.5045 129.855 41.6237 129.16 41.6237ZM129.16 40.0664C130.49 40.0664 131.155 39.0112 131.155 36.9009C131.155 35.8457 130.994 35.0543 130.672 34.5267C130.35 33.9991 129.85 33.7353 129.172 33.7353C127.825 33.7353 127.152 34.7905 127.152 36.9009C127.152 39.0112 127.821 40.0664 129.16 40.0664ZM134.733 32.2547C135.127 32.2206 135.526 32.193 135.93 32.1717C136.333 32.1504 136.745 32.1398 137.165 32.1398C137.586 32.1398 138.017 32.1823 138.459 32.2674C138.901 32.3525 139.3 32.5121 139.656 32.7461C140.012 32.9801 140.301 33.3056 140.524 33.7226C140.747 34.1395 140.859 34.6799 140.859 35.3436C140.859 36.0074 140.747 36.5456 140.524 36.9583C140.301 37.371 140.014 37.6965 139.662 37.9348C139.31 38.173 138.918 38.3347 138.484 38.4198C138.051 38.5049 137.624 38.5475 137.204 38.5475L136.895 38.5347C136.792 38.5347 136.698 38.5304 136.612 38.5219V41.4705C136.449 41.496 136.29 41.513 136.135 41.5215C135.981 41.5301 135.833 41.5343 135.691 41.5343C135.55 41.5343 135.398 41.5301 135.235 41.5215C135.072 41.513 134.904 41.496 134.733 41.4705V32.2547ZM136.612 36.9775C136.715 36.9945 136.813 37.003 136.908 37.003H137.23C137.444 37.003 137.654 36.9753 137.86 36.92C138.066 36.8647 138.248 36.7732 138.407 36.6456C138.566 36.5179 138.692 36.3499 138.787 36.1414C138.881 35.9329 138.928 35.6734 138.928 35.3628C138.928 35.0522 138.881 34.7884 138.787 34.5714C138.692 34.3544 138.566 34.1799 138.407 34.048C138.248 33.9161 138.066 33.8225 137.86 33.7672C137.654 33.7119 137.444 33.6843 137.23 33.6843H136.972C136.886 33.6928 136.766 33.7055 136.612 33.7226V36.9775ZM142.236 32.293C142.554 32.2419 142.86 32.2164 143.156 32.2164C143.452 32.2164 143.764 32.2419 144.09 32.293V39.8622H147.294C147.32 40.0068 147.337 40.1451 147.346 40.277C147.354 40.4089 147.359 40.5387 147.359 40.6663C147.359 40.794 147.354 40.9237 147.346 41.0556C147.337 41.1875 147.32 41.3258 147.294 41.4705H142.236V32.293ZM148.581 32.293H153.833C153.884 32.5482 153.91 32.812 153.91 33.0843C153.91 33.3566 153.884 33.6204 153.833 33.8757H150.461V35.867H153.138C153.189 36.1393 153.215 36.4073 153.215 36.6711C153.215 36.9349 153.189 37.1987 153.138 37.4625H150.461V39.8877H153.923C153.974 40.143 154 40.4068 154 40.6791C154 40.9514 153.974 41.2152 153.923 41.4705H148.581V32.293Z" fill="#181823"/>
<path d="M81.2849 7.90323L71.722 26.871H90.8478L81.2849 7.90323ZM81.2849 11.4381L86.675 22.129H79.4584L80.2552 20.5483H84.0957L81.2849 14.972L76.88 23.7098H87.4719L88.2687 25.2902H74.3011L81.2849 11.4381Z" fill="#181823"/>
<path d="M96.9959 20.3813C96.9201 17.5249 96.9454 14.4931 96.9707 11.6617C96.9707 10.7847 96.9201 9.83258 96.9201 8.9556C96.9201 8.00345 96.5412 8.05357 96.0359 8.02851C95.3032 8.00345 94.9747 8.00345 94.242 8.00345C93.762 7.9784 93.5599 8.10368 93.5599 8.57975C93.5599 11.0353 93.4841 17.9759 93.5093 18.9782C93.5346 19.9804 93.6356 24.5407 93.5851 25.543C93.5599 25.8938 93.5851 26.2446 93.6104 26.5953C93.6356 26.7206 93.7114 26.8459 93.9136 26.8459C94.7473 26.7958 95.5305 26.7958 96.3643 26.7707C96.6675 26.7457 96.9201 26.6705 97.0465 26.3448C97.0717 26.1694 96.9959 21.5841 96.9959 20.3813ZM102.706 24.9667C102.706 24.3152 102.706 20.2059 102.731 19.8802C102.756 19.805 102.807 19.6547 102.908 19.6547C103.009 19.6547 103.06 19.7048 103.085 19.78C104.095 21.7344 104.98 23.6888 105.889 25.5931C106.016 25.8687 106.294 26.6705 106.369 26.7457C106.47 26.896 106.647 26.8459 106.799 26.8459L109.578 26.871C109.907 26.871 109.982 26.6705 109.907 26.3949C109.704 25.6432 108.264 22.9872 107.936 22.3357C107.708 21.8346 106.193 18.9281 106.142 18.7026C106.091 18.6023 106.47 18.4269 106.521 18.3518C107.734 17.2743 108.82 16.1719 109.047 14.4931C109.3 12.8394 108.921 11.0353 107.835 9.70729C107.001 8.73009 105.915 8.15379 104.626 8.07862C103.843 8.02851 103.085 8.10368 102.302 8.07862C101.619 8.05357 101.139 8.05357 100.28 8.05357C99.8762 8.05357 99.6235 8.27908 99.5983 8.70504V9.00571C99.5477 10.9351 99.5983 12.8644 99.6235 14.7687C99.6235 17.6752 99.573 25.3425 99.573 26.445C99.573 26.7707 99.6235 26.8459 99.9267 26.8459C100.104 26.8459 100.306 26.871 100.483 26.871C101.19 26.871 101.619 26.8459 102.352 26.8459C102.908 26.8459 102.706 25.9439 102.706 24.9667ZM102.706 15.1947L102.731 12.664C102.756 12.2881 102.63 11.5364 102.984 11.2608C103.464 10.91 104.449 11.2608 104.879 11.5615C106.142 12.4134 106.041 14.5181 105.359 15.6958C105.03 16.247 104.474 16.5728 103.843 16.7482C103.464 16.8484 102.756 16.9737 102.731 16.3723C102.731 15.9714 102.706 15.1947 102.706 15.1947ZM112.458 10.5091C112.433 12.0626 112.585 23.4132 112.559 24.24C112.559 25.0168 112.559 25.7935 112.585 26.5703C112.585 26.6956 112.66 26.8209 112.787 26.8209C114.555 26.896 116.299 26.7457 118.067 26.7707C118.648 26.7958 119.229 26.7707 119.785 26.7707C120.341 26.7457 120.392 26.5202 120.366 26.0692C120.341 25.3676 120.341 24.7412 120.341 24.0646C120.316 23.7139 120.114 23.5886 119.811 23.5886C118.775 23.6136 117.739 23.5635 116.703 23.6136C116.526 23.6387 116.349 23.6387 116.172 23.6387C115.869 23.6136 115.793 23.5385 115.768 23.2127V22.8369C115.692 20.7572 115.844 18.6023 115.844 16.5226C115.819 14.7687 115.844 13.1901 115.819 11.6366C115.819 10.9601 115.819 10.2836 115.793 9.63212C115.768 9.23122 115.793 8.80526 115.692 8.40436C115.642 8.25402 115.566 8.05357 115.389 8.05357H113.014C112.61 8.05357 112.484 8.32919 112.458 8.73009V10.5091ZM126.38 20.3813C126.304 17.5249 126.329 14.4931 126.354 11.6617C126.354 10.7847 126.304 9.83258 126.304 8.9556C126.304 8.00345 125.925 8.05357 125.419 8.02851C124.687 8.00345 124.358 8.00345 123.626 8.00345C123.146 7.9784 122.943 8.10368 122.943 8.57975C122.943 11.0353 122.868 17.9759 122.893 18.9782C122.918 19.9804 123.019 24.5407 122.969 25.543C122.943 25.8938 122.969 26.2446 122.994 26.5953C123.019 26.7206 123.095 26.8459 123.297 26.8459C124.131 26.7958 124.914 26.7958 125.748 26.7707C126.051 26.7457 126.304 26.6705 126.43 26.3448C126.455 26.1694 126.38 21.5841 126.38 20.3813ZM139.72 8.62987C139.795 8.98066 139.745 25.6683 139.745 26.0942C139.745 26.8459 139.467 26.8209 138.962 26.8209C138.204 26.8209 137.143 26.9461 136.915 26.6956C136.713 26.5202 132.974 17.575 132.443 16.4475C132.393 16.3473 132.266 16.0967 132.165 16.1468C132.039 16.1969 132.089 16.3723 132.089 16.4725C132.064 17.3495 132.216 24.9166 132.216 26.1193C132.216 26.7206 132.191 26.8209 131.685 26.8209H130.422C130.094 26.8209 129.689 26.7958 129.361 26.8459C129.108 26.8459 128.982 26.7707 128.957 26.5202V24.5407C129.007 22.436 128.957 9.95786 128.957 9.03077C128.957 8.22896 129.184 8.07862 129.992 8.07862C130.548 8.05357 131.104 8.05357 131.66 8.05357C131.837 8.05357 131.938 8.07862 132.039 8.30413C132.721 9.88269 135.627 17.124 136.081 18.001C136.157 18.1764 136.435 18.878 136.587 18.9531H136.612C136.713 18.8529 136.688 18.3518 136.688 18.2014C136.688 17.8256 136.486 9.03077 136.486 8.85537C136.486 8.60481 136.41 8.3793 136.536 8.20391C136.612 8.10368 136.94 8.07862 137.067 8.05357C137.774 8.00345 138.608 8.07862 139.315 8.05357C139.669 8.05357 139.644 8.30413 139.72 8.62987ZM142.322 21.7093H142.297C142.297 22.3357 142.271 22.9872 142.297 23.6387C142.322 24.4405 142.372 25.2423 142.423 26.0441C142.423 26.3197 142.499 26.3949 142.751 26.445C143.282 26.5703 143.787 26.5953 144.318 26.5953C145.682 26.5452 147.047 26.6455 148.411 26.5953C148.967 26.5703 149.219 26.6204 149.775 26.5202C150.28 26.4199 150.457 26.1443 150.457 25.3926C150.407 24.9166 150.432 24.7161 150.432 24.1398C150.432 23.3129 149.851 23.0373 149.346 23.0624C148.992 23.0874 147.299 23.0373 146.617 23.0373C145.48 23.0624 145.657 23.2127 145.657 22.0351C145.657 21.0829 145.682 19.8552 145.682 18.878C145.682 18.3518 145.733 18.1764 146.238 18.1764H149.396C149.902 18.2515 150.255 17.9008 150.255 17.3746C150.255 16.8484 150.306 16.8233 150.306 16.2971L150.23 15.5454C150.179 15.1195 150.028 14.9691 149.598 14.9691C149.32 14.9691 149.042 14.9942 148.765 15.0193C147.678 15.0944 147.173 14.9441 146.112 15.0193C145.758 15.0193 145.707 14.9691 145.682 14.6434C145.581 13.6662 145.682 12.5888 145.783 11.6116C145.809 11.2107 145.91 11.1355 146.289 11.1105L149.851 11.0854C150.331 11.0353 150.483 11.0603 150.457 10.5843C150.407 9.85763 150.483 9.10594 150.407 8.3793C150.356 7.9784 150.23 7.90323 149.775 7.90323C149.017 7.92829 148.84 7.92829 148.082 7.9784C147.324 8.00345 144.293 8.00345 143.56 8.00345C142.499 8.00345 142.423 7.92829 142.398 9.20616C142.347 10.2084 142.372 11.2357 142.372 12.2631C142.372 14.017 142.271 20.3062 142.322 21.7093Z" fill="#181823"/>
</g>
<defs>
<clipPath id="clip0_451_5">
<rect width="154" height="49" fill="white"/>
</clipPath>
</defs>
</svg>
