<svg width="24" height="24" viewBox="0 0 24 24" fill="none" xmlns="http://www.w3.org/2000/svg">
<g id="194929_facebook_social media_icon 1" clip-path="url(#clip0_451_46)">
<g id="Page-1">
<g id="Facebook">
<path id="Oval-1" fill-rule="evenodd" clip-rule="evenodd" d="M12 24C18.6274 24 24 18.6274 24 12C24 5.37258 18.6274 0 12 0C5.37258 0 0 5.37258 0 12C0 18.6274 5.37258 24 12 24ZM12 22.56C17.8321 22.56 22.56 17.8321 22.56 12C22.56 6.16787 17.8321 1.44 12 1.44C6.16787 1.44 1.44 6.16787 1.44 12C1.44 17.8321 6.16787 22.56 12 22.56ZM12.871 17.28V11.9994H14.433L14.64 10.1797H12.871L12.8736 9.26886C12.8736 8.79425 12.9219 8.53994 13.6524 8.53994H14.6289V6.72H13.0667C11.1902 6.72 10.5297 7.60277 10.5297 9.0873V10.1799H9.36V11.9996H10.5297V17.28H12.871Z" fill="#181823"/>
</g>
</g>
</g>
<defs>
<clipPath id="clip0_451_46">
<rect width="24" height="24" fill="white"/>
</clipPath>
</defs>
</svg>
