<svg width="24" height="24" viewBox="0 0 24 24" fill="none" xmlns="http://www.w3.org/2000/svg">
<g id="194904_social media_youtube_icon 1" clip-path="url(#clip0_451_50)">
<g id="Page-1">
<g id="YouTube">
<path id="Oval-1" fill-rule="evenodd" clip-rule="evenodd" d="M24 12C24 5.37258 18.6274 0 12 0C5.37258 0 0 5.37258 0 12C0 18.6274 5.37258 24 12 24C18.6274 24 24 18.6274 24 12ZM22.56 12C22.56 6.16787 17.8321 1.44 12 1.44C6.16787 1.44 1.44 6.16787 1.44 12C1.44 17.8321 6.16787 22.56 12 22.56C17.8321 22.56 22.56 17.8321 22.56 12ZM17.6488 14.7674C17.5055 15.3901 16.9962 15.8492 16.3833 15.9177C14.9316 16.0799 13.4623 16.0807 11.9993 16.0799C10.5364 16.0807 9.06693 16.0799 7.61534 15.9177C7.00234 15.8492 6.49327 15.3901 6.35013 14.7674C6.14629 13.8806 6.14629 12.913 6.14629 12.0001C6.14629 11.0871 6.14871 10.1194 6.35241 9.23257C6.49569 8.6099 7.00476 8.15066 7.61762 8.08231C9.06935 7.92009 10.5387 7.91929 12.0017 7.92009C13.4646 7.91929 14.934 7.92009 16.3856 8.08231C16.9986 8.15066 17.5079 8.6099 17.6511 9.23257C17.8549 10.1194 17.8537 11.0871 17.8537 12.0001C17.8537 12.913 17.8525 13.8806 17.6488 14.7674ZM10.9463 9.84L14.1863 11.7106L10.9463 13.5812V9.84Z" fill="#181823"/>
</g>
</g>
</g>
<defs>
<clipPath id="clip0_451_50">
<rect width="24" height="24" fill="white"/>
</clipPath>
</defs>
</svg>
